<mxfile host="app.diagrams.net" modified="2023-09-13T03:51:31.514Z" agent="Mozilla/5.0 (Windows NT 10.0; Win64; x64) AppleWebKit/537.36 (KHTML, like Gecko) Chrome/115.0.0.0 Safari/537.36 OPR/101.0.0.0" version="21.7.4" etag="hcH2bLPgHNU9XcWCBDHj" type="github">
  <diagram name="Page-1" id="L4VTsb_76ay9qALAxKsN">
    <mxGraphModel>
      <root>
        <mxCell id="0" />
        <mxCell id="1" parent="0" />
      </root>
    </mxGraphModel>
  </diagram>
</mxfile>
